<svg width="58" height="22" viewBox="0 0 58 22" fill="none" xmlns="http://www.w3.org/2000/svg">
<path d="M1.03039 21.2214C0.807518 21.2214 0.626846 21.0408 0.626846 20.8179V1.50753C0.626846 1.28466 0.807518 1.10399 1.03039 1.10399H3.83239C4.05526 1.10399 4.23593 1.28466 4.23593 1.50753V8.18374C4.23593 8.55381 4.69249 8.72871 4.93974 8.45335L11.4184 1.23792C11.495 1.15268 11.6041 1.10399 11.7187 1.10399H15.0805C15.4309 1.10399 15.6148 1.52006 15.3789 1.77921L8.92365 8.86882C8.80253 9.00185 8.7841 9.199 8.87847 9.35218L15.812 20.6062C15.9776 20.8751 15.7842 21.2214 15.4684 21.2214H11.9916C11.8505 21.2214 11.7196 21.1477 11.6465 21.0269L6.40653 12.3747C6.26635 12.1432 5.94255 12.1126 5.76148 12.3137L4.33959 13.8928C4.27286 13.9669 4.23593 14.0631 4.23593 14.1628V20.8179C4.23593 21.0408 4.05526 21.2214 3.83239 21.2214H1.03039Z" fill="#FF5D5F"/>
<path d="M18.9813 21.2214C18.7584 21.2214 18.5778 21.0408 18.5778 20.8179V7.37033C18.5778 7.14746 18.7584 6.96679 18.9813 6.96679H21.4364C21.6397 6.96679 21.8113 7.11798 21.8368 7.31965L21.975 8.41133C22.024 8.79877 22.5778 8.91861 22.8309 8.62123C23.2199 8.1643 23.6725 7.77567 24.1888 7.45536C24.9704 6.96376 25.8698 6.68964 26.8869 6.63299C27.1094 6.62059 27.2903 6.80259 27.2903 7.02546V10.0982C27.2903 10.321 27.1097 10.5017 26.8868 10.5017H26.2753C25.4858 10.5017 24.7809 10.6262 24.1606 10.8753C23.5403 11.1244 23.0515 11.5555 22.6944 12.1686C22.356 12.7817 22.1869 13.6343 22.1869 14.7264V20.8179C22.1869 21.0408 22.0062 21.2214 21.7833 21.2214H18.9813Z" fill="#FF5D5F"/>
<path d="M41.336 21.2214C41.1658 21.2214 41.014 21.1147 40.9563 20.9546L36.1152 7.50702C36.0205 7.24405 36.2154 6.96679 36.4949 6.96679H39.4071C39.5813 6.96679 39.7358 7.07856 39.7904 7.24399L42.8684 16.5814C42.9903 16.951 43.5131 16.951 43.6349 16.5814L46.713 7.24399C46.7675 7.07856 46.9221 6.96679 47.0962 6.96679H50.0074C50.2872 6.96679 50.4821 7.2446 50.3868 7.50768L45.5191 20.9552C45.4613 21.115 45.3096 21.2214 45.1397 21.2214H41.336Z" fill="#FF5D5F"/>
<path d="M54.8045 4.75387C54.1466 4.75387 53.6015 4.5527 53.1692 4.15035C52.7556 3.748 52.5489 3.24027 52.5489 2.62717C52.5489 2.01406 52.7556 1.51592 53.1692 1.13273C53.6015 0.73038 54.1466 0.529205 54.8045 0.529205C55.4624 0.529205 55.9982 0.73038 56.4117 1.13273C56.844 1.51592 57.0602 2.01406 57.0602 2.62717C57.0602 3.24027 56.844 3.748 56.4117 4.15035C55.9982 4.5527 55.4624 4.75387 54.8045 4.75387ZM53.4035 21.2214C53.1807 21.2214 53 21.0408 53 20.8179V7.37033C53 7.14746 53.1807 6.96679 53.4035 6.96679H56.2055C56.4284 6.96679 56.6091 7.14746 56.6091 7.37033V20.8179C56.6091 21.0408 56.4284 21.2214 56.2055 21.2214H53.4035Z" fill="#FF5D5F"/>
<path fill-rule="evenodd" clip-rule="evenodd" d="M30.3016 6.96679C30.0787 6.96679 29.898 7.14746 29.898 7.37033V20.8179C29.898 21.0408 30.0787 21.2214 30.3016 21.2214H33.1036C33.3264 21.2214 33.5071 21.0408 33.5071 20.8179V7.37033C33.5071 7.14746 33.3264 6.96679 33.1036 6.96679H30.3016Z" fill="#FF5D5F"/>
<path d="M31.7026 4.75387C31.0446 4.75387 30.4995 4.5527 30.0672 4.15035C29.6536 3.748 29.4469 3.24027 29.4469 2.62717C29.4469 2.01406 29.6536 1.51592 30.0672 1.13273C30.4995 0.73038 31.0446 0.529205 31.7026 0.529205C32.3605 0.529205 32.8962 0.73038 33.3097 1.13273C33.7421 1.51592 33.9582 2.01406 33.9582 2.62717C33.9582 3.24027 33.7421 3.748 33.3097 4.15035C32.8962 4.5527 32.3605 4.75387 31.7026 4.75387Z" fill="#FF5D5F"/>
<mask id="mask0_41_9" style="mask-type:alpha" maskUnits="userSpaceOnUse" x="29" y="0" width="29" height="5">
<path d="M54.8046 4.75387C54.1466 4.75387 53.6015 4.55269 53.1692 4.15035C52.7556 3.748 52.5489 3.24027 52.5489 2.62717C52.5489 2.01406 52.7556 1.51592 53.1692 1.13273C53.6015 0.730379 54.1466 0.529205 54.8046 0.529205C55.4625 0.529205 55.9982 0.730379 56.4117 1.13273C56.8441 1.51592 57.0602 2.01406 57.0602 2.62717C57.0602 3.24027 56.8441 3.748 56.4117 4.15035C55.9982 4.55269 55.4625 4.75387 54.8046 4.75387Z" fill="#FF5D5F"/>
<path d="M54.8046 4.75387C54.1466 4.75387 53.6015 4.55269 53.1692 4.15035C52.7556 3.748 52.5489 3.24027 52.5489 2.62717C52.5489 2.01406 52.7556 1.51592 53.1692 1.13273C53.6015 0.730379 54.1466 0.529205 54.8046 0.529205C55.4625 0.529205 55.9982 0.730379 56.4117 1.13273C56.8441 1.51592 57.0602 2.01406 57.0602 2.62717C57.0602 3.24027 56.8441 3.748 56.4117 4.15035C55.9982 4.55269 55.4625 4.75387 54.8046 4.75387Z" fill="white"/>
<path d="M31.7026 4.75387C31.0447 4.75387 30.4995 4.55269 30.0672 4.15035C29.6537 3.748 29.4469 3.24027 29.4469 2.62717C29.4469 2.01406 29.6537 1.51592 30.0672 1.13273C30.4995 0.730379 31.0447 0.529205 31.7026 0.529205C32.3605 0.529205 32.8962 0.730379 33.3097 1.13273C33.7421 1.51592 33.9583 2.01406 33.9583 2.62717C33.9583 3.24027 33.7421 3.748 33.3097 4.15035C32.8962 4.55269 32.3605 4.75387 31.7026 4.75387Z" fill="#FF5D5F"/>
<path d="M31.7026 4.75387C31.0447 4.75387 30.4995 4.55269 30.0672 4.15035C29.6537 3.748 29.4469 3.24027 29.4469 2.62717C29.4469 2.01406 29.6537 1.51592 30.0672 1.13273C30.4995 0.730379 31.0447 0.529205 31.7026 0.529205C32.3605 0.529205 32.8962 0.730379 33.3097 1.13273C33.7421 1.51592 33.9583 2.01406 33.9583 2.62717C33.9583 3.24027 33.7421 3.748 33.3097 4.15035C32.8962 4.55269 32.3605 4.75387 31.7026 4.75387Z" fill="white"/>
</mask>
<g mask="url(#mask0_41_9)">
<path d="M1.03039 21.2214C0.807518 21.2214 0.626846 21.0408 0.626846 20.8179V1.50753C0.626846 1.28466 0.807518 1.10399 1.03039 1.10399H3.83239C4.05526 1.10399 4.23593 1.28466 4.23593 1.50753V8.18374C4.23593 8.55381 4.69249 8.72871 4.93974 8.45335L11.4184 1.23792C11.495 1.15268 11.6041 1.10399 11.7187 1.10399H15.0805C15.4309 1.10399 15.6148 1.52006 15.3789 1.77921L8.92365 8.86882C8.80253 9.00185 8.7841 9.199 8.87847 9.35218L15.812 20.6062C15.9776 20.8751 15.7842 21.2214 15.4684 21.2214H11.9916C11.8505 21.2214 11.7196 21.1477 11.6465 21.0269L6.40653 12.3747C6.26635 12.1432 5.94255 12.1126 5.76148 12.3137L4.33959 13.8928C4.27286 13.9669 4.23593 14.0631 4.23593 14.1628V20.8179C4.23593 21.0408 4.05526 21.2214 3.83239 21.2214H1.03039Z" fill="#7666F0"/>
<path d="M18.9813 21.2214C18.7584 21.2214 18.5778 21.0408 18.5778 20.8179V7.37033C18.5778 7.14746 18.7584 6.96679 18.9813 6.96679H21.4364C21.6397 6.96679 21.8113 7.11798 21.8368 7.31965L21.975 8.41133C22.024 8.79877 22.5778 8.91861 22.8309 8.62123C23.2199 8.1643 23.6725 7.77567 24.1888 7.45536C24.9704 6.96376 25.8698 6.68964 26.8869 6.63299C27.1094 6.62059 27.2903 6.80259 27.2903 7.02546V10.0982C27.2903 10.321 27.1097 10.5017 26.8868 10.5017H26.2753C25.4858 10.5017 24.7809 10.6262 24.1606 10.8753C23.5403 11.1244 23.0515 11.5555 22.6944 12.1686C22.356 12.7817 22.1869 13.6343 22.1869 14.7264V20.8179C22.1869 21.0408 22.0062 21.2214 21.7833 21.2214H18.9813Z" fill="#7666F0"/>
<path d="M41.336 21.2214C41.1658 21.2214 41.014 21.1147 40.9563 20.9546L36.1152 7.50702C36.0205 7.24405 36.2154 6.96679 36.4949 6.96679H39.4071C39.5813 6.96679 39.7358 7.07856 39.7904 7.24399L42.8684 16.5814C42.9903 16.951 43.5131 16.951 43.6349 16.5814L46.713 7.24399C46.7675 7.07856 46.9221 6.96679 47.0962 6.96679H50.0074C50.2872 6.96679 50.4821 7.2446 50.3868 7.50768L45.5191 20.9552C45.4613 21.115 45.3096 21.2214 45.1397 21.2214H41.336Z" fill="#7666F0"/>
<path d="M54.8045 4.75387C54.1466 4.75387 53.6015 4.5527 53.1692 4.15035C52.7556 3.748 52.5489 3.24027 52.5489 2.62717C52.5489 2.01406 52.7556 1.51592 53.1692 1.13273C53.6015 0.73038 54.1466 0.529205 54.8045 0.529205C55.4624 0.529205 55.9982 0.73038 56.4117 1.13273C56.844 1.51592 57.0602 2.01406 57.0602 2.62717C57.0602 3.24027 56.844 3.748 56.4117 4.15035C55.9982 4.5527 55.4624 4.75387 54.8045 4.75387ZM53.4035 21.2214C53.1807 21.2214 53 21.0408 53 20.8179V7.37033C53 7.14746 53.1807 6.96679 53.4035 6.96679H56.2055C56.4284 6.96679 56.6091 7.14746 56.6091 7.37033V20.8179C56.6091 21.0408 56.4284 21.2214 56.2055 21.2214H53.4035Z" fill="#7666F0"/>
<path fill-rule="evenodd" clip-rule="evenodd" d="M30.3016 6.96679C30.0787 6.96679 29.898 7.14746 29.898 7.37033V20.8179C29.898 21.0408 30.0787 21.2214 30.3016 21.2214H33.1036C33.3264 21.2214 33.5071 21.0408 33.5071 20.8179V7.37033C33.5071 7.14746 33.3264 6.96679 33.1036 6.96679H30.3016Z" fill="#7666F0"/>
<path d="M31.7026 4.75387C31.0446 4.75387 30.4995 4.5527 30.0672 4.15035C29.6536 3.748 29.4469 3.24027 29.4469 2.62717C29.4469 2.01406 29.6536 1.51592 30.0672 1.13273C30.4995 0.73038 31.0446 0.529205 31.7026 0.529205C32.3605 0.529205 32.8962 0.73038 33.3097 1.13273C33.7421 1.51592 33.9582 2.01406 33.9582 2.62717C33.9582 3.24027 33.7421 3.748 33.3097 4.15035C32.8962 4.5527 32.3605 4.75387 31.7026 4.75387Z" fill="#7666F0"/>
</g>
</svg>
